<svg width="1304" height="1511" viewBox="0 0 1304 1511" fill="none" xmlns="http://www.w3.org/2000/svg">
<path d="M809.5 896H696V1261.5L1112.5 1016V697H809.5V446L993.5 553.5V613H1112.5V489.5L696 247V812H993.5V950.5L809.5 1062.5V896Z" fill="black"/>
<path d="M496 612.5H609.5V247L193 492.5V811.5H496V1062.5L312 955V895.5H193V1019L609.5 1261.5V696.5H312V558L496 446V612.5Z" fill="black"/>
<path d="M652 1376V1510.5L1304 1136.5V374.5L652 0.5V135L1191 444V1067L652 1376Z" fill="black"/>
<path d="M652 1376V1510.5L0 1136.5V374.5L652 0.5V135L113 444V1067L652 1376Z" fill="black"/>
</svg>